<svg xmlns="http://www.w3.org/2000/svg" viewBox="0 0 40 40"><defs><style>.a{fill:#fea7b2;}.b{fill:#2fb8dd;fill-rule:evenodd;}</style></defs><title>circle-arrow</title><path class="a" d="M11.49,33c3.75,3.1,9,5,11.8,4.18.09.34.64.19.85,0,0-.05-.14-.07-.1-.18.14,0,.11.2.24.26.43-.49,1-.06,1.3-.5l0,0,0,0s-.08,0-.05-.07c.21,0,.25.19.49-.16,2.22-.59,4-1.82,6.07-4.17,3.49-5.79,3.39-11.4,2.58-16.08-.73-4.18-3.25-7.93-6-9.58,0-.11.11-.11.16-.19-.47-.13-1.34-.37-1.27-.91,0-.07-.43.32-.47-.1.48-.31,0-.25-.19,0a.69.69,0,0,0,0-.52.79.79,0,0,0-.06.37.31.31,0,0,0-.33,0c.28-.86.06-.08-.14-.07s-.23-.39-.49-.51-.92.32-.72-.36c-.21.71-.78-.57-.7,0-.39-.61-1.41-.07-1.29-.65-.19.11-.74.08-.29-.14-.14-.2-.85.23-.53-.4a2.49,2.49,0,0,0-.68.2c.1.24.38-.15.29.14-.56.25-.7-.79-1.12-.43.08.06.21.08.17.22-.18-.14-.56.07-.24-.26-.21-.3-.21.49-.42.19.06-.13.23-.19.13-.34-.23.3-.25-.41-.45,0,.08.06.21.08.17.22a3.43,3.43,0,0,0-.59,0c.07-.17.22,0,.27-.26-.18-.32-.69.12-1,.16,0-.31-.48-.37-.83-.28.08.06.16.12.06.3-.41,0-1.12-.25-1.1,0-.34,0,0-.5-.31-.29-.07.09-.42.5-.7,0-.06.12-.11.32-.2.3s.08-.22,0-.26c-1,.77-1.83,0-2.82.86-.14,0-.11-.21-.24-.26-.06.5-.58.43-.23.15A14,14,0,0,1,9.86,5c0-.11.11-.11.16-.19C7.87,6.3,5.66,7,3.9,10.42c.11.9-.48,2.26-.26,3.08A14,14,0,0,1,8,7.14c1-.79,2.69-1.75,3.36-1.39,0,0-.11.25,0,.26s.13-.3.2-.3.34.38.46.36c-.74.43-1.68.33-2.33.7-.1.06-.14.34-.13.34S9.5,6.89,9.34,7A12.76,12.76,0,0,0,4,13.94c-1,3.21,0,6,.85,8.58.37,2.47,2,4.08,2.87,6.25.18-.2.73.59,1.19,1.13a18.12,18.12,0,0,0,2.17,2.56A2.56,2.56,0,0,1,11.49,33ZM8.36,31.75c.06.17.14.44,0,.43-.18-.32-.5-.56-.57-1-.17.25-1.54-1.15-1.13-1.5-.17-.24-.24.09-.37.08a23.94,23.94,0,0,1-3.4-6.65,31.16,31.16,0,0,1,.38-12c-1.06,1.06-1.91,3.77-2.21,5.44C.5,22.6,2.24,27.28,5.3,30.78a24.69,24.69,0,0,0,8.07,5.66,1.13,1.13,0,0,0,0,.41c0-.48.1-.21.32-.38-1.33-.84-2-1.51-3.29-2.32,0-.35.24-.35.15-.6-.26.34-.22.17-.53.27-.33-.32,0-.49-.53-.4.25-.21.09-.43.36-.49-.45-.17-.17.19-.39.34A5.32,5.32,0,0,1,8.36,31.75ZM27.24,2.36c.63-.09,1.52.55,2,.9a35.44,35.44,0,0,1,3.49,2,12.32,12.32,0,0,1,3.33,4.21c3.34,4,5.49,11.59,2.37,19.64a20,20,0,0,1-6.55,8.47c-.07,0-.05-.08,0-.15a16.37,16.37,0,0,1-5.66,2.24c.06-.11.17,0,.23-.15-.51.22-.72.11-1.16.35,0-.08.11-.08.16-.19-.35.09-.67.34-1,.28.06-.25.19-.16.3-.12,0-.46-.4-.06-.49.16-.16-.11.15-.51.22-.56-.14-.07-.21.26-.37.08,0,.42,0,.47-.39.34.49-.29-.1-.15-.37-.59-.23.24-.51.21-.52.67-.2-.12-.66.14-.69-.21s.2.2.4.07c.13-.59-.54.11-.08-.44-.53-.2-.45.82-.95.46.08-.14.19-.11.27-.26-.2-.09-.33.09-.1-.18-.22-.13-.35.18-.59,0,0,.4.14.23.39.33-.25.32-.4-.08-.53.27-.14-.1.17-.5.07-.63a5.33,5.33,0,0,1-.71-.06s0-.07-.09-.07l0,0c-.18,0-.32-.11-.34-.23-.18-.07-.16.36-.06.37a.72.72,0,0,1-.86.24c-.13-.3.35-.16.52,0,.36-.61-.18-.3.15-.6-.11-.47-.46.57-.52,0a.53.53,0,0,1-.62.49q-.24-.09-.08-.44c-.07,0-.11.08-.19,0s-.09.32.06.3c-.2.18-.52-.21-.73-.1.27-.32.49-.18.88-.49,0-.28-.35.15-.54-.14.2.61-.7-.34-.68.2-.13,0-.68-.39-.23-.52-.41-.16-.42.46-.63.75-.17,0-.05-.62-.2-.37-.07-.48.23.25.35-.23-.12-.4-.58.34-.83.38.1-.29.25-.29.36-.49-.38-.72-.55.29-.76.42.13-.43-.1-.19.1-.48,0-.31-.35.4-.59,0a.3.3,0,0,1,.37-.08c0-.29-.21,0-.31-.29a.94.94,0,0,1-1.41.1c.08-.06.39-.45.1-.48.11-.2.28-.1.36-.49-.22.18-.63.54-.75.16-.2.06.09.4-.25.41-.07-.12.2-.31,0-.52-.24,0,0,.27-.17.45l-.36-.18c.56.74-.76-.18-1.16-.32,0-.08.12-.08.16-.19.17-.49.2.56.46-.3-.31.42-.45-.66-.6.23-.21-.08-.11-.43,0-.52a.27.27,0,0,1-.26,0,.56.56,0,0,0,.11.59c-.13.24-.37-.13-.54-.14.39-.11.13-.47.38-.75-.1-.11-.4.29-.25.41-.12.27-.25-.09-.29-.14-.1.18,0,.24.06.3-.18.21-.47-.18-.69-.21L9.86,36c-.18-.13-.32-.11-.42.19-.18-.19,0-.58-.44-.62,0,.16.14.18.24.26-.29.29-.34-.27-.46-.36-.13.43-.34-.16-.76-.25.06-.12.17,0,.26,0,.07-.27-.38-.19-.34-.44-.06.12-.06.21,0,.26a6.15,6.15,0,0,1-2.69-2.55c0,.15,0,.27.12.33-.56-.1-1.35-1.43-1.93-2,0-.28.06-.14.17-.45-.13-.13-.2.09-.27.26A19,19,0,0,1,1,26.36c0-.06.08-.08.11-.08l.12.23c0,.06.05.13.08.14l-.08-.14c0-.1-.07-.21-.12-.23-1.77-3.39-1.76-10.54,2-15.85,0-.11-.05-.13-.1-.18C3.66,9.8,3.74,9,4,8.46,6.67,2.22,10.72.71,14.43.07c.58.29,1.32-.24,1.72.2,0-.57.71,0,1,0,.85.07,2,.11,2.9.25.71.11,2,0,2.15.41a8.42,8.42,0,0,1,3,.55c.28.08.54.06.8.14A7.84,7.84,0,0,1,27.24,2.36ZM32,7.29c.18-.6-.38-.23-.51-.66C31.38,7,31.81,7.08,32,7.29Zm2.93,2.81a6.94,6.94,0,0,0-2.49-2.18c4.49,5.7,5.92,19.16-1.71,27.48-1.22.85-2.94,2.32-3.9,2.32.65.49,2.26-.42,3-.75,5.37-4.36,7.74-13.45,7-20.26A16.45,16.45,0,0,0,34.93,10.1ZM15.8,1.83c-.87-.2-3.15.25-4,0-.22.23-1.26.8-1.61.4a33.47,33.47,0,0,1-2.92,2c-.5.85-2.32,2.71-1.94,3.44,0-.55.66-.62.88-1.16l.21.11C9.49,3.69,12.36,2.79,15.8,1.83Zm22,13c0-.07,0-.14,0-.15,0,2.69.44,5.39,0,8.41a30.63,30.63,0,0,1-.86,3.31c-.12.46-.08,1-.24,1.48a32,32,0,0,1-4,7.62c1.7-1.84,3.51-3.19,4.84-6.26A19.51,19.51,0,0,0,37.78,14.87ZM2.48,28.56c-.16.21-.24-.7-.59-.7C2,28,2.3,29,2.48,28.56ZM18.9,38.94c-.14-.15-.58-.13-.44,0,.09,0,.24-.12.21.11q-.22-.14-.35.23c.19,0,.41.13.56-.12C18.84,39.15,18.84,39.07,18.9,38.94ZM7.4,34c-.18-.24-.24.09-.37.08,0-.07,0-.14,0-.15-.25.43.31.52.2.37S7.36,34.09,7.4,34Zm5.18,3.4c.21-.29-.06-.91,0-.56.07,0,0,.24-.09.22s-.05-.13-.1-.18l-.13.34C12.41,37.27,12.52,37.09,12.58,37.37ZM12,36.57l-.22.56c-.1-.06-.28-.11-.19,0s.42.38.55.14C11.88,37.16,12.17,37,12,36.57ZM7.87,34.74c-.15-.16-.31-.42-.54-.14C7.5,34.61,7.74,35,7.87,34.74Z"/><path class="b" d="M29.49,20a1,1,0,0,0-.09-.4,1,1,0,0,0-.23-.36l-8-8a1,1,0,1,0-1.45,1.45L26,19H11.49a1,1,0,0,0,0,2H26l-6.27,6.27a1,1,0,0,0,1.45,1.45l8-8a1,1,0,0,0,.23-.36A1,1,0,0,0,29.49,20Z"/></svg>