<svg xmlns="http://www.w3.org/2000/svg" viewBox="0 0 132 112"><defs><style>.a{fill:#5bd3e5;}</style></defs><title>bg-number</title><path class="a" d="M67.46,19.61h3v3a1.28,1.28,0,0,0,2.56,0v-3h3a1.28,1.28,0,1,0,0-2.55H73v-3a1.28,1.28,0,0,0-2.56,0v3h-3a1.28,1.28,0,1,0,0,2.55ZM13.35,59.46,9,62.67l-3.2-4.33A2.32,2.32,0,0,0,2.09,61.1l3.2,4.33L1,68.63a2.32,2.32,0,1,0,2.75,3.72L8,69.15l3.2,4.33A2.32,2.32,0,0,0,15,70.72l-3.2-4.33,4.33-3.2a2.32,2.32,0,1,0-2.75-3.72Zm116.65,45-5.94,4.43-6.69-5-6.69,5-6.69-5-6.69,5-6.69-5-6.69,5-6.69-5-6.69,5-6.69-5-6.69,5-6.69-5-6.69,5-6.69-5-6.69,5-5.94-4.43-1.5,2L30.43,112l6.69-5,6.69,5,6.69-5,6.69,5,6.69-5,6.69,5,6.69-5,6.69,5,6.69-5,6.69,5,6.69-5,6.69,5,6.69-5,6.69,5,7.44-5.55ZM15.23,0a2.29,2.29,0,1,0,2.29,2.29A2.29,2.29,0,0,0,15.23,0Z"/></svg>