<svg xmlns="http://www.w3.org/2000/svg" viewBox="0 0 77.24 74.41"><defs><style>.a{fill:#5bd3e5;}</style></defs><title>figures</title><path class="a" d="M76,17.06H73v-3a1.28,1.28,0,0,0-2.56,0v3h-3a1.28,1.28,0,1,0,0,2.55h3v3a1.28,1.28,0,0,0,2.56,0v-3h3a1.28,1.28,0,1,0,0-2.55ZM13.35,59.46,9,62.67l-3.2-4.33A2.32,2.32,0,0,0,2.09,61.1l3.2,4.33L1,68.63a2.32,2.32,0,1,0,2.75,3.72L8,69.15l3.2,4.33A2.32,2.32,0,0,0,15,70.72l-3.2-4.33,4.33-3.2a2.32,2.32,0,1,0-2.75-3.72ZM15.23,0a2.29,2.29,0,1,0,2.29,2.29A2.29,2.29,0,0,0,15.23,0Z"/></svg>