<svg xmlns="http://www.w3.org/2000/svg" viewBox="0 0 16 34"><defs><style>.a{fill:#f31462;}</style></defs><title>pepper</title><path class="a" d="M2.23,2.95a3.15,3.15,0,0,1,1.83.67A5.71,5.71,0,0,1,5.59,5.4,7.43,7.43,0,0,1,7.35,5,7.75,7.75,0,0,1,9,4.95,9.33,9.33,0,0,0,6.17,1.34,6.74,6.74,0,0,0,1.65,0,1.47,1.47,0,0,0,.26,1.67,1.76,1.76,0,0,0,2.23,2.95Zm13.4,10.21C15,10,11.33,6.5,7.73,6.93A5.16,5.16,0,0,0,4.38,8.78a5.91,5.91,0,0,0-1.1,5.74c3.66,9.72.08,14.7-2,17.18l-.65.76c-.73.86-1,1.28.07,1.46,2.44.42,7.6-1.66,11.25-6A17.1,17.1,0,0,0,15.63,13.16Z"/></svg>