<svg xmlns="http://www.w3.org/2000/svg" viewBox="0 0 175.51 8.09"><defs><style>.a{fill:#5bd3e5;}</style></defs><title>underline-width</title><polygon class="a" points="174.01 0.56 168.07 4.99 161.38 0 154.69 4.99 148 0 141.31 4.99 134.62 0 127.94 4.99 121.25 0 114.56 4.99 107.87 0 107.05 0.61 107.01 0.56 101.13 4.95 94.5 0 94.44 0.04 94.38 0 87.75 4.94 81.12 0 81.06 0.05 81 0 74.38 4.94 68.5 0.56 68.45 0.62 67.62 0 60.94 4.99 54.25 0 47.56 4.99 40.87 0 34.19 4.99 27.5 0 20.81 4.99 14.12 0 7.44 4.99 1.5 0.56 0 2.56 7.44 8.1 14.12 3.11 20.81 8.1 27.5 3.11 34.19 8.1 40.87 3.11 47.56 8.1 54.25 3.11 60.94 8.1 67.62 3.11 74.31 8.1 74.38 8.06 74.44 8.1 81.06 3.16 87.69 8.1 87.75 8.06 87.81 8.1 94.44 3.16 101.07 8.1 101.13 8.06 101.19 8.1 107.87 3.11 114.56 8.1 121.25 3.11 127.94 8.1 134.62 3.11 141.31 8.1 148 3.11 154.69 8.1 161.38 3.11 168.07 8.1 175.51 2.56 174.01 0.56"/></svg>