<svg xmlns="http://www.w3.org/2000/svg" viewBox="0 0 170.03 6"><defs><style>.a{fill:#53d1e4;fill-rule:evenodd;}</style></defs><title>wave-line-blue-small</title><polygon class="a" points="169.12 6.04 170.03 5.42 163.06 0.67 163.09 0.66 162.18 0.04 155.23 4.76 149.23 0.67 149.25 0.66 148.34 0.04 141.24 4.87 135.07 0.67 135.09 0.66 134.19 0.04 127.08 4.87 120.92 0.67 120.94 0.66 120.03 0.04 113.09 4.76 107.08 0.67 107.11 0.66 106.2 0.04 99.09 4.87 92.92 0.67 92.95 0.66 92.04 0.04 84.94 4.87 78.77 0.67 78.79 0.66 77.88 0.04 70.94 4.76 64.94 0.67 64.96 0.66 64.05 0.04 56.95 4.87 50.78 0.67 50.8 0.66 49.89 0.04 42.79 4.87 36.68 0.71 36.68 0.71 35.77 0.09 28.85 4.8 22.79 0.67 22.81 0.66 21.9 0.04 14.8 4.87 8.63 0.67 8.66 0.66 7.75 0.04 0.03 5.29 0.94 5.91 7.72 1.3 14.69 6.04 14.99 5.84 15.09 5.91 21.87 1.3 28.84 6.04 29.76 5.42 29.76 5.42 35.76 1.33 42.68 6.04 42.98 5.84 43.08 5.91 49.86 1.3 56.84 6.04 57.13 5.84 57.24 5.91 64.02 1.3 70.99 6.04 71.91 5.42 71.85 5.38 77.85 1.3 84.83 6.04 85.12 5.84 85.23 5.91 92.01 1.3 98.98 6.04 99.28 5.84 99.38 5.91 106.17 1.3 113.14 6.04 114.05 5.42 114 5.38 120 1.3 126.97 6.04 127.27 5.84 127.37 5.91 134.16 1.3 141.13 6.04 141.42 5.84 141.53 5.91 148.31 1.3 155.28 6.04 156.2 5.42 156.14 5.38 162.15 1.3 169.12 6.04"/></svg>