<svg xmlns="http://www.w3.org/2000/svg" viewBox="0 0 510 6"><defs><style>.a{fill:#53d1e4;fill-rule:evenodd;}</style></defs><title>wave-line-blue</title><path class="a" d="M163.09.66,162.18,0l-6.94,4.72-6-4.09,0,0L148.34,0l-7.1,4.83L135.07.67l0,0L134.19,0l-7.1,4.83L120.92.67l0,0L120,0l-6.94,4.72-6-4.09,0,0L106.2,0l-7.1,4.83L92.93.67l0,0L92,0l-7.1,4.83L78.77.67l0,0L77.88,0,70.94,4.76l-6-4.09,0,0L64.05,0l-7.1,4.83L50.78.67l0,0L49.89,0l-7.1,4.83L36.68.71h0L35.77.09,28.85,4.8,22.79.67l0,0L21.9,0,14.8,4.87,8.63.67l0,0L7.75,0,0,5.29l.91.62L7.72,1.3l7,4.74.3-.2.11.07L21.87,1.3l7,4.74.92-.62h0l6-4.08L42.68,6l.3-.2.11.07L49.86,1.3l7,4.74.3-.2.11.07L64,1.3,71,6l.92-.62-.05,0,6-4.08,7,4.74.3-.2.11.07L92,1.3,99,6l.3-.2.11.07,6.78-4.61,7,4.74.92-.62-.05,0,6-4.08L127,6l.3-.2.11.07,6.78-4.61,7,4.74.3-.2.11.07,6.78-4.61,7,4.74.92-.62-.05,0,6-4.08,7,4.74.92-.62-7-4.74Zm170,0L332.18,0l-6.94,4.72-6-4.09,0,0L318.34,0l-7.1,4.83L305.07.67l0,0L304.19,0l-7.1,4.83L290.92.67l0,0L290,0l-6.94,4.72-6-4.09,0,0L276.2,0l-7.1,4.83L262.93.67l0,0L262,0l-7.1,4.83L248.77.67l0,0L247.88,0l-6.94,4.72-6-4.09,0,0L234.05,0l-7.1,4.83L220.78.67l0,0L219.89,0l-7.1,4.83L206.62.67l0,0L205.74,0,198.8,4.76l-6-4.09,0,0L191.9,0l-7.1,4.83L178.63.67l0,0L177.75,0,170,5.29l.91.62,6.78-4.61,7,4.74.3-.2.11.07,6.78-4.61,7,4.74.92-.62-.05,0,6-4.08,7,4.74.3-.2.11.07,6.78-4.61,7,4.74.3-.2.11.07L234,1.3,241,6l.92-.62-.05,0,6-4.08,7,4.74.3-.2.11.07L262,1.3,269,6l.3-.2.11.07,6.78-4.61,7,4.74.92-.62-.05,0,6-4.08L297,6l.3-.2.11.07,6.78-4.61,7,4.74.3-.2.11.07,6.78-4.61,7,4.74.92-.62-.05,0,6-4.08,7,4.74.92-.62-7-4.74Zm170,0,0,0L502.18,0l-6.94,4.72-6-4.09,0,0L488.34,0l-7.1,4.83L475.07.67l0,0L474.19,0l-7.1,4.83L460.92.67l0,0L460,0l-6.94,4.72-6-4.09,0,0L446.2,0l-7.1,4.83L432.93.67l0,0L432,0l-7.1,4.83L418.77.67l0,0L417.88,0l-6.94,4.72-6-4.09,0,0L404.05,0l-7.1,4.83L390.78.67l0,0L389.89,0l-7.1,4.83L376.62.67l0,0L375.74,0,368.8,4.76l-6-4.09,0,0L361.9,0l-7.1,4.83L348.63.67l0,0L347.75,0,340,5.29l.91.62,6.78-4.61,7,4.74.3-.2.11.07,6.78-4.61,7,4.74.92-.62-.05,0,6-4.08,7,4.74.3-.2.11.07,6.78-4.61,7,4.74.3-.2.11.07L404,1.3,411,6l.92-.62-.05,0,6-4.08,7,4.74.3-.2.11.07L432,1.3,439,6l.3-.2.11.07,6.78-4.61,7,4.74.92-.62-.05,0,6-4.08L467,6l.3-.2.11.07,6.78-4.61,7,4.74.3-.2.11.07,6.78-4.61,7,4.74.92-.62-.05,0,6-4.08,7,4.74.92-.62Z"/></svg>