<svg xmlns="http://www.w3.org/2000/svg" viewBox="0 0 109.01 8.11"><defs><style>.a{fill:#5bd3e5;}</style></defs><title>underline-min</title><polygon class="a" points="107.01 0.56 101.07 4.99 94.38 0 87.69 4.99 81 0 74.31 4.99 67.62 0 60.94 4.99 54.25 0 47.56 4.99 40.87 0 34.19 4.99 27.5 0 20.81 4.99 14.12 0 7.44 4.99 1.5 0.56 0 2.56 7.44 8.1 14.12 3.11 20.81 8.1 27.5 3.11 34.19 8.1 40.87 3.11 47.56 8.1 54.25 3.11 60.94 8.1 67.62 3.11 74.31 8.1 81 3.11 87.69 8.1 94.38 3.11 101.07 8.1 108.51 2.56 107.01 0.56"/></svg>